<svg xmlns="http://www.w3.org/2000/svg"><defs><style>.uuid-1c2c89b3-14ad-4274-a843-fae30ff30839{stroke-width:0}</style><style>.uuid-945c0a62-ebb5-41d9-a734-41d21a551ff2{fill:#80c46e;stroke-width:0}.uuid-9d2a87e2-5d70-4454-98fa-7fd42fee5be0{stroke-width:0;fill:#66ad66}</style></defs><symbol id="arrow-more"><path fill="#fff" d="M5.196 5.25 0 0h10.392z"></path></symbol><symbol id="arrow-right" viewBox="0 0 20 20"><path d="M5.73 20.04c-.6-.18-.96-.67-1.34-1.11-.35-.4-.28-1.01.1-1.4l1.56-1.56 5.73-5.73c.05-.05.13-.09.21-.15-.1-.1-.15-.16-.21-.22L4.6 2.69c-.56-.56-.56-1.17 0-1.73l.51-.51c.49-.48 1.12-.49 1.61 0 .73.72 1.45 1.45 2.18 2.18 2.19 2.19 4.38 4.38 6.58 6.57.37.37.51.78.32 1.27-.07.17-.2.32-.33.45-2.49 2.5-4.99 4.99-7.48 7.49-.33.33-.66.65-.98.98-.27.27-.53.55-.92.66h-.35Z" style="stroke-width:0"></path></symbol><symbol id="bag" viewBox="0 0 19.5 25"><path d="M4.84 5.62c-.11-1.76.39-3.25 1.69-4.4C7.45.4 8.53 0 9.75 0c1.46 0 2.7.57 3.67 1.68.98 1.11 1.32 2.44 1.23 3.94h.38c.61.01 1.22-.03 1.82.06 1.09.15 1.92 1.13 1.98 2.25.12 2.3.22 4.6.33 6.9.12 2.52.24 5.03.34 7.55.05 1.26-.7 2.26-1.85 2.54-.21.05-.44.08-.66.08H2.51C1.03 25-.05 23.9 0 22.4c.06-1.78.16-3.56.24-5.34.08-1.65.15-3.3.23-4.95.07-1.42.12-2.85.21-4.27.07-1.2 1.14-2.2 2.35-2.22.59-.01 1.18 0 1.82 0Zm4.91 17.73h7.21c.58 0 .95-.36.93-.91-.04-1.09-.1-2.19-.15-3.28-.1-2.07-.19-4.13-.29-6.2-.07-1.61-.14-3.21-.22-4.82-.03-.62-.37-.93-.97-.93-4.34.01-8.69.03-13.03.04-.62 0-.94.3-.97.93-.13 2.66-.25 5.33-.37 7.99-.09 2.03-.18 4.06-.28 6.09-.03.74.27 1.08 1.01 1.08h7.13ZM13.03 5.6c.12-1.54-.35-2.77-1.67-3.53-1.22-.7-2.46-.61-3.59.24-1.08.81-1.43 1.95-1.3 3.29z" class="uuid-1c2c89b3-14ad-4274-a843-fae30ff30839"></path><path d="M9.76 14.02c-2.3-.02-4.27-1.6-4.79-3.85-.12-.53.1-.98.56-1.09.48-.12.89.15 1.03.69.35 1.38 1.22 2.25 2.58 2.56 1.64.37 3.35-.7 3.8-2.36.03-.12.06-.24.09-.35.14-.42.55-.65.98-.54.41.1.67.52.59.96-.36 1.99-2.17 3.71-4.16 3.92l-.69.06Z" class="uuid-1c2c89b3-14ad-4274-a843-fae30ff30839"></path></symbol><symbol id="logo" viewBox="0 0 38 48"><path d="M13.06 48c-.46-.17-.95-.3-1.39-.51-1.86-.88-2.86-2.39-3.22-4.38-.51-2.85-1.05-5.7-1.58-8.55h19.35c-.23 1.25-.47 2.5-.7 3.75-.3 1.63-.59 3.27-.9 4.9-.42 2.21-1.65 3.76-3.81 4.5-.35.12-.71.19-1.07.28h-6.67Z" style="stroke-width:0;fill:#fdc27d"></path><path d="M19.73 48c.36-.09.72-.16 1.07-.28 2.17-.74 3.39-2.29 3.81-4.5.31-1.63.6-3.27.9-4.9.23-1.25.47-2.5.7-3.75h4.9c-.54 2.86-1.11 5.72-1.6 8.59-.44 2.6-2.41 4.45-4.6 4.76-.04 0-.08.05-.11.08h-5.08Z" style="stroke-width:0;fill:#f8ae5d"></path><path d="M4.88 15.58c-.3-1.13-.64-2.24-.81-3.4-.38-2.57-.32-5.12.42-7.63.04-.13.02-.29.2-.33.38.92.88 1.79 1.33 2.68 1.53 3.06 3.12 6.1 4.57 9.2.19.41.41.81.65 1.29.06-.15.1-.2.11-.26.1-1.62.48-3.19.85-4.76.15-.62.46-1.2.47-1.85.25-.2.27-.52.36-.79 1.16-3.2 2.78-6.14 4.95-8.76.29-.35.56-.75.99-.97v30.69h-.29c-.02-.11-.04-.21-.07-.32-.56-1.73-1.29-3.38-2.19-4.96-1.44-2.5-3.29-4.62-5.73-6.17-1.93-1.23-3.88-2.44-5.82-3.66Z" class="uuid-945c0a62-ebb5-41d9-a734-41d21a551ff2"></path><path d="M18.99 30.69V0c.42.11.58.5.83.78 2.46 2.88 4.21 6.14 5.38 9.73.79 2.35 1.27 4.77 1.54 7.35.45-.9.84-1.71 1.23-2.52 1.2-2.51 2.43-5.01 3.65-7.51.47-.96.92-1.92 1.39-2.87.11-.23.11-.53.39-.67.38.95.53 1.95.64 2.95.32 2.85-.06 5.62-.94 8.34-.31.2-.63.41-.94.6-1.43.89-2.85 1.79-4.29 2.67-1.92 1.18-3.58 2.64-4.93 4.45-1.66 2.24-2.86 4.71-3.66 7.38H19Z" class="uuid-9d2a87e2-5d70-4454-98fa-7fd42fee5be0"></path><path d="M18.99 30.69h2.45c1.59 0 3.18.01 4.77.01 1.39 0 2.77-.02 4.16-.03.55 0 1.09 0 1.64.02 1.08.02 1.88.79 1.95 1.79.07 1.02-.73 2.01-1.89 2.07-.31.02-.62 0-.93.01H6.89c-.4-.05-.81 0-1.22-.07-1.02-.18-1.69-1.03-1.62-2.08.07-.95.9-1.7 1.91-1.71.56 0 1.13 0 1.69-.01H19Z" style="stroke-width:0;fill:#f1a559"></path><path d="M18.7 30.69h-2.07L15.31 30c-1.83-.98-3.46-2.22-5-3.6-.92-.82-1.79-1.69-2.62-2.61-.85-.94-1.66-1.9-2.44-2.89-1.33-1.68-2.52-3.45-3.64-5.27-.51-.84-1.08-1.65-1.42-2.58 1.29.53 2.47 1.28 3.69 1.96.34.19.67.38 1.01.57 1.94 1.22 3.88 2.43 5.82 3.66 2.45 1.56 4.3 3.67 5.73 6.17.91 1.58 1.63 3.23 2.19 4.96.03.1.05.21.07.32" class="uuid-9d2a87e2-5d70-4454-98fa-7fd42fee5be0"></path><path d="M21.43 30.69h-2.17c.79-2.67 1.99-5.14 3.66-7.38 1.35-1.81 3.01-3.27 4.93-4.45 1.43-.88 2.86-1.78 4.29-2.67.32-.2.63-.4.94-.6 1.33-.73 2.67-1.47 4-2.2.19-.1.4-.17.59-.26.05.26-.1.45-.22.65-.51.86-1.01 1.72-1.54 2.56a53 53 0 0 1-6.51 8.41c-.74.78-1.55 1.49-2.37 2.19-1.38 1.19-2.86 2.25-4.47 3.12-.38.21-.81.32-1.13.63" class="uuid-945c0a62-ebb5-41d9-a734-41d21a551ff2"></path><path d="M21.43 30.69c.32-.31.75-.42 1.13-.63 1.61-.87 3.09-1.93 4.47-3.12.82-.7 1.63-1.41 2.37-2.19 2.44-2.59 4.62-5.38 6.51-8.41.53-.85 1.03-1.71 1.54-2.56.12-.2.27-.39.22-.65h.19c.19 1.17.13 2.34.07 3.51-.1 2.13-.41 4.24-.97 6.31-.94 3.48-3.04 5.99-6.28 7.55-.11.05-.22.11-.33.17-1.39 0-2.77.02-4.16.03-1.59 0-3.18 0-4.77-.01Z" class="uuid-9d2a87e2-5d70-4454-98fa-7fd42fee5be0"></path><path d="M.19 13.05c.34.93.9 1.74 1.42 2.58 1.12 1.82 2.31 3.59 3.64 5.27.78.99 1.59 1.96 2.44 2.89.83.92 1.7 1.78 2.62 2.61 1.54 1.38 3.18 2.62 5 3.6.44.24.88.46 1.32.69H7.64c-.91-.49-1.83-.94-2.64-1.59-1.98-1.59-3.3-3.59-3.96-6.04-.8-2.96-1.12-5.97-1.02-9.03.01-.33-.04-.68.17-.98M33.38 4.3c-.28.13-.28.44-.39.67-.47.95-.93 1.91-1.39 2.87-1.22 2.5-2.45 5-3.65 7.51-.39.81-.78 1.62-1.23 2.52-.27-2.58-.75-4.99-1.54-7.35.53-.42.86-1.01 1.31-1.5 1.81-1.99 3.9-3.6 6.39-4.65.15-.06.31-.25.5-.06Z" class="uuid-945c0a62-ebb5-41d9-a734-41d21a551ff2"></path><path d="M12.68 10.52c0 .65-.32 1.23-.47 1.85-.37 1.57-.75 3.14-.85 4.76 0 .06-.04.11-.11.26-.24-.48-.46-.88-.65-1.29C9.15 13 7.56 9.96 6.03 6.9c-.45-.89-.95-1.76-1.33-2.68 1.27.38 2.38 1.08 3.45 1.82 1.77 1.23 3.28 2.72 4.53 4.48" class="uuid-9d2a87e2-5d70-4454-98fa-7fd42fee5be0"></path><path d="M37.87 13.14h-.19c.07-.1.14-.16.19 0" class="uuid-945c0a62-ebb5-41d9-a734-41d21a551ff2"></path></symbol><symbol id="play" viewBox="0 0 23 26"><path d="M21 9.933c2 1.154 2 4.041 0 5.196L4.5 24.655c-2 1.155-4.5-.289-4.5-2.598V3.004C0 .695 2.5-.748 4.5.406z"></path></symbol><symbol id="Rectangle" viewBox="0 0 512 631"><g data-name="group"><path d="M437 631H75c-1.28-.27-2.54-.68-3.83-.8-28.78-2.84-50.1-16.97-63.01-42.81-3.79-7.59-5.5-16.23-8.16-24.38V70c.28-.76.69-1.5.83-2.29C6.55 35.4 25.31 14.33 56.13 3.79 60.96 2.14 66.04 1.24 71 0h18c1.26.33 2.5.81 3.78.96 24.1 2.91 48.17 6.12 72.32 8.57 34.44 3.5 68.96 5.99 103.62 5.16 40.95-.98 81.67-5.09 122.3-10.02C401.71 3.38 412.34 1.57 423 0h18c1.08.33 2.15.75 3.26.96 29.3 5.44 50.37 21.45 62.07 49C509.02 56.3 510.15 63.3 512 70v493c-.31.73-.77 1.43-.89 2.18-5.4 33.14-29.83 58.06-62.94 64.1-3.7.68-7.44 1.15-11.17 1.72" data-name="contur" style="stroke-width:0"></path></g></symbol><symbol id="search" viewBox="0 0 26 26"><path d="m11.53 0 1.15.15c4.52.67 8.21 4.22 9 8.7.59 3.36-.28 6.34-2.49 8.94-.04.05-.08.09-.12.13 0 .01-.01.03-.02.06.04.05.09.11.14.16 2.1 2.07 4.21 4.14 6.31 6.21.19.19.33.41.5.62v.36c-.12.32-.35.53-.66.66h-.36c-.23-.18-.49-.33-.69-.53-2.1-2.05-4.19-4.11-6.28-6.17-.05-.05-.11-.1-.18-.17-.07.05-.14.09-.21.14-2.08 1.57-4.43 2.31-7.03 2.25-4.86-.13-9.09-3.49-10.25-8.14-.14-.58-.2-1.18-.29-1.77-.01-.07-.03-.14-.05-.22v-1.22c.02-.08.04-.16.05-.24.06-.43.09-.86.18-1.28C1.17 4.1 4.99.61 9.59.1c.24-.03.48-.07.72-.1zm-.58 19.89c1.09 0 2.05-.17 3.11-.53 4.21-1.44 6.77-5.76 6.02-10.12-.81-4.71-5.3-8.23-10.48-7.49-2.29.32-4.22 1.37-5.72 3.14-1.89 2.23-2.59 4.8-2.02 7.67.87 4.31 4.68 7.36 9.09 7.34Z" style="stroke-width:0"></path></symbol><symbol id="star-half" viewBox="0 0 8 14"><path fill="#FFF84E" d="M7.133 0v10.365l-4.408 3.203 1.683-5.183L0 5.182h5.45z"></path></symbol><symbol id="star" viewBox="0 0 15 14"><path fill="#FFF84E" d="m7.133 0 1.684 5.182h5.449L9.857 8.385l1.684 5.183-4.408-3.203-4.409 3.203 1.684-5.183L0 5.182h5.449z"></path></symbol></svg>